<?xml version="1.0" standalone="no"?>
<!DOCTYPE svg PUBLIC "-//W3C//DTD SVG 20010904//EN"
 "http://www.w3.org/TR/2001/REC-SVG-20010904/DTD/svg10.dtd">
<svg version="1.0" xmlns="http://www.w3.org/2000/svg"
 width="3180.000000pt" height="1698.000000pt" viewBox="0 0 3180.000000 1698.000000"
 preserveAspectRatio="xMidYMid meet">

<g transform="translate(0.000000,1698.000000) scale(0.100000,-0.100000)"
fill="#000000" stroke="none">
<path d="M16780 16025 c-265 -25 -514 -84 -695 -165 -33 -15 -80 -35 -105 -46
-228 -97 -426 -223 -669 -427 -134 -112 -229 -204 -296 -287 -28 -36 -80 -94
-114 -130 -60 -63 -124 -151 -226 -310 -27 -43 -57 -86 -66 -97 -33 -36 -319
-582 -319 -607 0 -8 -78 -208 -130 -336 -22 -52 -51 -135 -66 -185 -15 -49
-39 -133 -55 -185 -76 -252 -158 -653 -184 -910 -23 -220 -30 -871 -15 -1220
15 -328 16 -368 4 -380 -6 -6 -36 8 -79 37 -69 46 -146 89 -295 163 -218 110
-653 204 -915 198 -170 -3 -147 -25 60 -58 254 -40 259 -41 500 -118 127 -41
167 -59 329 -155 186 -109 415 -295 439 -356 20 -48 41 -155 62 -306 25 -180
84 -542 100 -610 7 -33 20 -107 29 -165 19 -121 46 -252 76 -360 11 -41 36
-142 56 -225 74 -307 164 -652 188 -720 13 -38 40 -124 59 -190 63 -216 147
-478 186 -585 22 -58 66 -186 100 -285 33 -99 87 -254 121 -345 34 -91 89
-241 122 -335 56 -159 75 -211 178 -485 277 -740 312 -828 527 -1320 119 -272
304 -652 430 -885 33 -60 83 -153 110 -205 28 -52 66 -120 85 -151 69 -117
168 -291 168 -295 0 -2 30 -50 68 -107 37 -57 85 -134 107 -171 22 -37 81
-128 130 -202 50 -75 107 -164 129 -198 21 -33 60 -88 86 -121 26 -33 65 -87
88 -120 99 -142 359 -486 462 -611 41 -51 94 -116 117 -145 24 -30 71 -89 105
-131 35 -42 78 -97 96 -122 18 -25 40 -46 48 -46 19 0 17 36 -30 490 -8 80
-22 217 -31 305 -9 88 -22 210 -30 270 -8 61 -21 166 -30 235 -9 69 -22 159
-30 200 -8 41 -24 136 -36 210 -11 74 -24 153 -29 175 -5 22 -23 112 -40 200
-80 414 -162 772 -240 1050 -16 55 -36 129 -46 165 -29 109 -40 151 -74 260
-46 151 -209 659 -225 700 -8 19 -39 105 -70 190 -31 85 -65 175 -75 200 -10
25 -31 79 -45 120 -15 41 -56 143 -91 225 -34 83 -93 222 -129 310 -64 152
-123 287 -185 420 -15 33 -65 141 -110 240 -78 170 -353 728 -370 750 -4 6
-44 81 -88 167 -45 87 -92 175 -105 195 -13 21 -41 70 -62 108 -21 39 -72 131
-113 205 -82 147 -151 271 -202 365 -18 33 -47 83 -65 110 -18 28 -69 111
-113 186 -198 334 -513 783 -703 1003 -126 145 -309 337 -371 388 -69 58 -76
77 -88 253 -5 72 -14 195 -20 275 -14 194 -14 1049 0 1220 19 234 79 575 136
785 73 264 126 438 169 550 237 616 417 944 705 1290 311 373 579 586 973 774
272 131 450 178 772 207 325 29 654 -3 916 -89 393 -129 728 -342 1024 -648
264 -274 428 -517 590 -874 123 -271 160 -391 206 -655 74 -430 95 -765 70
-1098 -31 -407 -153 -975 -273 -1272 -16 -41 -48 -126 -70 -189 -43 -126 -257
-555 -346 -696 -154 -244 -164 -258 -357 -495 -118 -146 -429 -422 -635 -564
-323 -224 -527 -323 -860 -419 -143 -41 -452 -55 -660 -29 -186 24 -407 98
-499 168 -127 97 -221 284 -221 439 0 116 51 350 99 457 32 71 138 262 189
342 57 89 33 118 -32 40 -228 -272 -312 -443 -366 -741 -32 -170 -16 -303 54
-455 103 -227 306 -372 621 -443 338 -76 707 -52 1085 71 152 49 460 205 625
316 261 176 476 356 652 543 166 177 276 317 437 555 85 125 237 402 338 615
115 242 273 703 322 935 91 438 128 757 130 1115 1 331 -21 557 -90 915 -88
453 -352 999 -661 1371 -103 123 -285 306 -410 411 -124 103 -419 297 -528
346 -49 22 -112 52 -139 66 -27 14 -54 26 -61 26 -7 0 -37 11 -67 24 -132 58
-362 106 -638 131 -182 17 -305 17 -490 0z m-2534 -5943 c16 -21 62 -77 103
-126 42 -49 123 -151 181 -226 58 -76 122 -159 144 -186 38 -50 240 -355 329
-500 27 -44 77 -124 111 -179 76 -122 152 -256 409 -720 142 -256 204 -374
361 -680 86 -168 313 -638 321 -665 4 -14 44 -104 90 -200 45 -96 98 -213 118
-260 174 -416 225 -538 231 -555 5 -11 27 -74 51 -140 24 -66 66 -181 95 -255
64 -167 253 -732 314 -940 94 -321 239 -899 285 -1140 27 -135 46 -229 75
-365 13 -60 27 -132 31 -160 3 -27 26 -171 50 -320 48 -290 70 -462 79 -617 5
-83 4 -98 -8 -98 -15 0 -129 138 -241 293 -33 45 -90 124 -128 176 -93 127
-328 480 -425 638 -44 70 -102 164 -129 209 -45 72 -177 300 -238 409 -133
239 -405 784 -507 1015 -28 63 -70 158 -93 210 -24 52 -52 118 -63 145 -11 28
-42 104 -70 170 -27 66 -57 141 -65 166 -9 25 -40 104 -71 175 -30 71 -69 170
-86 219 -54 157 -91 256 -143 385 -27 69 -72 188 -99 265 -95 269 -107 301
-148 410 -44 114 -124 339 -165 460 -13 39 -45 129 -70 200 -49 138 -112 334
-215 665 -18 58 -44 139 -58 180 -14 41 -29 91 -32 110 -4 19 -18 71 -30 115
-12 44 -26 96 -30 115 -4 19 -20 82 -34 140 -15 58 -34 134 -42 170 -9 36 -22
85 -29 110 -7 25 -21 79 -30 120 -9 41 -23 98 -30 125 -14 49 -58 279 -90 465
-9 52 -23 127 -30 165 -40 196 -55 332 -39 348 11 11 33 -4 60 -41z"/>
<path d="M16067 10332 c-10 -10 -14 -22 -10 -25 3 -4 13 2 21 14 18 26 10 35
-11 11z"/>
<path d="M4935 9389 c-206 -21 -474 -111 -628 -212 -177 -116 -239 -170 -369
-322 -107 -125 -155 -204 -241 -400 -74 -167 -117 -376 -117 -558 1 -162 38
-382 93 -542 30 -88 130 -286 174 -344 276 -368 605 -572 1018 -632 121 -18
402 -16 520 3 203 33 440 123 570 217 109 78 203 162 209 186 8 30 -5 58 -47
103 -49 51 -75 45 -186 -42 -228 -180 -479 -279 -743 -293 -140 -7 -298 9
-416 43 -45 13 -87 24 -93 24 -19 0 -170 70 -234 109 -148 88 -291 217 -388
349 -62 85 -158 277 -196 392 -64 197 -78 420 -42 640 22 135 48 208 137 386
71 143 158 254 290 369 167 146 271 210 444 270 304 106 607 99 910 -22 126
-51 206 -98 321 -191 91 -73 122 -87 159 -72 32 13 70 76 70 117 0 50 -15 64
-209 196 -31 21 -110 65 -176 96 -239 116 -522 160 -830 130z"/>
<path d="M9335 9384 c-217 -55 -313 -138 -402 -348 -49 -115 -65 -219 -72
-466 l-6 -215 -157 0 c-182 0 -182 0 -200 -89 -12 -56 -12 -59 11 -77 23 -19
53 -22 251 -25 36 0 73 -1 82 -2 16 -2 18 -56 20 -872 2 -697 6 -872 16 -882
17 -17 137 -17 154 0 10 10 14 184 16 875 2 795 3 863 19 875 13 9 107 12 388
12 295 0 375 3 390 13 23 18 24 132 1 155 -13 13 -71 15 -395 16 -277 1 -383
4 -392 13 -8 8 -10 68 -6 220 4 184 8 219 31 307 15 54 31 107 37 119 31 57
146 155 214 181 41 16 191 24 265 15 75 -10 146 -39 299 -124 103 -56 150 -44
167 43 9 43 -9 67 -98 134 -58 45 -93 63 -173 88 -93 30 -111 32 -270 36 -93
1 -179 1 -190 -2z"/>
<path d="M10985 9380 c-124 -26 -214 -76 -291 -164 -54 -61 -126 -205 -149
-299 -18 -77 -34 -278 -35 -444 0 -62 -3 -113 -7 -113 -5 0 -76 -1 -160 -3
-182 -2 -185 -4 -191 -101 -4 -55 -2 -66 15 -74 10 -6 87 -12 171 -14 84 -3
157 -9 162 -14 6 -6 11 -333 12 -867 3 -768 5 -858 19 -872 21 -21 142 -26
161 -7 10 10 13 185 15 874 1 613 5 864 13 872 8 8 126 11 386 12 433 0 407
-6 407 95 0 46 -4 65 -17 74 -28 21 -145 27 -461 24 -166 -1 -306 1 -313 5
-18 11 -16 377 3 480 15 88 47 160 101 230 96 122 247 164 457 127 62 -11 102
-27 203 -82 94 -51 136 -69 164 -69 48 0 70 27 70 86 0 37 -6 46 -55 93 -66
63 -149 103 -280 136 -81 21 -120 25 -229 24 -72 -1 -149 -5 -171 -9z"/>
<path d="M19843 9353 c-50 -10 -48 65 -48 -1480 0 -1418 0 -1445 19 -1459 31
-22 131 -19 156 6 20 20 20 33 20 1439 0 996 -3 1427 -11 1449 -9 25 -18 33
-47 38 -21 3 -44 7 -52 8 -8 2 -25 1 -37 -1z"/>
<path d="M20765 9337 c-20 -15 -20 -29 -23 -1369 -2 -744 0 -1399 3 -1455 l7
-102 54 -11 c70 -15 106 -4 115 36 23 99 17 2859 -6 2891 -17 23 -123 30 -150
10z"/>
<path d="M12338 9258 c-23 -18 -38 -61 -38 -112 0 -49 12 -63 80 -91 25 -10
131 -58 235 -106 463 -213 492 -221 510 -148 5 21 0 34 -25 63 -18 20 -36 36
-41 36 -4 0 -31 14 -60 30 -28 17 -117 65 -198 106 -80 42 -201 109 -268 150
-130 79 -168 93 -195 72z"/>
<path d="M21658 9191 c-45 -38 -62 -86 -56 -159 4 -49 9 -59 46 -94 35 -32 48
-38 84 -38 97 0 159 39 178 111 17 61 4 112 -38 160 -36 40 -40 42 -107 46
-67 4 -72 3 -107 -26z"/>
<path d="M23257 8380 c-132 -23 -157 -31 -272 -85 -273 -127 -502 -435 -545
-733 -8 -51 -11 -142 -7 -235 5 -176 29 -272 99 -411 113 -222 252 -365 441
-455 112 -53 199 -77 341 -96 170 -22 309 -5 481 57 156 57 232 106 343 221
73 77 87 120 52 164 -24 31 -57 52 -81 53 -9 0 -65 -43 -125 -96 -179 -157
-349 -227 -549 -226 -177 0 -360 57 -484 150 -75 57 -201 205 -240 282 -43 84
-78 214 -95 350 -6 51 12 203 35 293 27 109 64 176 157 288 176 211 378 309
643 309 108 0 212 -23 324 -72 70 -31 88 -42 205 -130 79 -60 124 -65 164 -17
51 60 28 108 -97 207 -205 162 -510 232 -790 182z"/>
<path d="M7265 8379 c-33 -5 -98 -14 -145 -20 -92 -12 -299 -71 -335 -95 -39
-26 -50 -67 -31 -118 25 -66 46 -72 136 -40 191 68 186 66 423 100 140 20 250
10 340 -30 116 -51 154 -100 182 -232 19 -88 38 -300 30 -332 -6 -23 -9 -24
-58 -19 -29 3 -77 13 -107 22 -136 39 -488 45 -625 11 -191 -47 -382 -192
-452 -342 -54 -117 -66 -182 -61 -314 6 -124 30 -214 90 -334 37 -74 138 -172
221 -214 232 -119 689 -60 902 117 35 29 58 41 75 39 23 -3 26 -9 36 -82 8
-56 16 -83 29 -92 22 -16 98 -18 126 -4 19 10 19 29 19 718 0 653 -2 716 -19
822 -29 171 -57 234 -139 315 -64 63 -139 99 -248 119 -98 17 -286 20 -389 5z
m361 -919 c120 -22 200 -44 220 -61 11 -9 14 -70 14 -303 0 -338 12 -301 -123
-389 -104 -69 -123 -78 -232 -116 -235 -80 -400 -76 -554 15 -67 39 -89 61
-136 139 -70 117 -93 251 -60 359 49 160 194 302 355 346 125 35 357 39 516
10z"/>
<path d="M12475 8370 c-181 -33 -285 -85 -416 -208 -160 -151 -242 -299 -294
-532 -33 -148 -38 -220 -25 -340 32 -301 123 -512 291 -680 149 -149 267 -207
504 -246 178 -29 348 -8 589 71 120 39 270 115 286 145 17 31 11 69 -16 116
-33 56 -62 58 -147 8 -33 -19 -102 -53 -154 -75 -340 -146 -653 -119 -881 74
-130 109 -212 248 -262 439 -26 100 -26 154 -1 168 13 7 281 10 798 10 473 0
784 4 793 10 20 12 25 140 12 280 -31 316 -227 594 -501 709 -112 47 -191 62
-356 67 -86 2 -148 -2 -220 -16z m378 -186 c40 -9 108 -33 152 -54 114 -54
229 -173 284 -291 42 -92 66 -174 76 -259 11 -98 78 -90 -713 -90 -381 -1
-698 2 -704 6 -17 11 -2 120 30 210 46 128 80 181 182 284 127 128 225 179
380 200 99 13 239 11 313 -6z"/>
<path d="M18161 8375 c-334 -52 -582 -276 -711 -641 -51 -145 -63 -326 -35
-538 26 -200 106 -376 258 -569 79 -101 281 -215 439 -248 211 -44 460 -20
703 66 152 54 170 63 223 114 35 34 42 48 42 79 0 35 -20 77 -44 94 -25 17
-65 5 -170 -51 -195 -103 -349 -146 -526 -145 -181 2 -322 50 -452 155 -92 75
-194 206 -237 304 -41 93 -72 284 -51 310 11 13 111 15 801 15 703 0 789 2
803 16 13 12 16 41 16 147 0 238 -53 406 -183 581 -118 159 -314 280 -505 310
-120 19 -253 19 -371 1z m383 -190 c194 -51 379 -228 445 -427 65 -197 70
-268 19 -268 -13 0 -329 -2 -703 -4 -447 -2 -684 0 -692 6 -7 6 -13 23 -13 37
0 54 38 198 68 257 40 79 155 218 223 271 70 54 188 110 270 127 89 20 309 20
383 1z"/>
<path d="M25360 8370 c-150 -29 -276 -86 -386 -176 -52 -41 -113 -97 -136
-123 -89 -100 -196 -309 -227 -446 -33 -147 -30 -364 8 -515 41 -162 159 -378
258 -471 139 -131 210 -178 333 -222 127 -46 220 -61 370 -61 153 0 296 33
435 99 192 92 371 293 453 510 153 400 86 802 -184 1111 -123 141 -345 270
-512 298 -120 21 -292 19 -412 -4z m393 -186 c31 -7 100 -34 152 -60 81 -39
110 -61 194 -143 88 -86 104 -107 150 -201 30 -60 62 -147 77 -205 22 -87 25
-115 21 -220 -4 -105 -9 -134 -41 -229 -62 -184 -105 -257 -218 -369 -84 -82
-114 -104 -191 -142 -121 -59 -206 -78 -337 -78 -163 1 -296 42 -427 131 -100
68 -211 200 -277 330 -25 48 -67 225 -79 332 -7 54 19 249 42 325 26 85 62
143 160 264 106 132 244 227 376 261 118 30 285 31 398 4z"/>
<path d="M21689 8343 c-12 -13 -14 -175 -14 -965 0 -928 0 -950 19 -964 11 -8
43 -14 73 -14 95 0 88 -80 91 958 2 498 1 920 -3 939 -5 27 -14 38 -40 49 -47
19 -109 18 -126 -3z"/>
<path d="M22748 5773 c-10 -2 -21 -15 -24 -28 -12 -50 3 -64 139 -129 136 -65
196 -83 228 -65 49 26 2 84 -122 150 -139 74 -173 85 -221 72z"/>
<path d="M25891 5423 c-26 -22 -103 -178 -170 -346 -29 -70 -83 -195 -121
-277 -39 -83 -70 -153 -70 -156 0 -8 -161 -357 -176 -379 -24 -39 -66 -155
-60 -170 4 -11 21 -15 60 -15 30 0 62 3 71 6 21 9 46 59 85 178 18 56 43 110
56 123 l23 23 319 0 c244 0 322 -3 330 -12 6 -7 35 -69 66 -138 30 -69 67
-140 81 -158 25 -31 30 -33 78 -30 l52 3 -3 45 c-3 45 -56 171 -195 460 -33
69 -81 175 -107 235 -27 61 -76 171 -110 245 -62 136 -80 178 -120 281 -23 61
-46 99 -59 99 -5 0 -18 -8 -30 -17z m40 -323 c5 -8 43 -91 85 -185 41 -93 93
-207 115 -253 22 -45 39 -93 37 -105 -3 -21 -8 -22 -153 -27 -82 -3 -197 -3
-255 0 -100 5 -105 6 -108 28 -2 12 11 50 28 85 18 34 40 85 50 112 10 28 40
100 68 160 27 61 59 132 71 158 21 50 44 59 62 27z"/>
<path d="M19947 5412 c-18 -20 -107 -206 -142 -297 -13 -33 -42 -100 -65 -150
-23 -49 -62 -137 -87 -195 -24 -58 -51 -114 -58 -126 -7 -11 -34 -70 -58 -130
-25 -60 -75 -173 -111 -251 -36 -78 -66 -150 -66 -161 0 -24 18 -32 69 -32 53
0 85 29 109 98 37 104 83 207 100 224 15 14 53 17 327 18 171 2 318 2 328 1
11 0 25 -19 38 -48 11 -27 27 -61 34 -78 67 -149 84 -182 97 -193 9 -7 39 -15
67 -19 40 -4 52 -3 56 10 8 20 -15 94 -60 192 -20 44 -52 113 -71 153 -19 41
-34 75 -34 78 0 2 -18 41 -41 86 -22 46 -51 110 -64 143 -22 56 -144 324 -194
425 -13 25 -36 78 -52 119 -31 81 -75 151 -94 151 -6 0 -19 -8 -28 -18z m83
-377 c22 -47 40 -88 40 -90 0 -3 27 -60 59 -128 76 -157 115 -268 98 -279 -16
-10 -494 -10 -501 0 -9 16 21 106 84 247 34 77 73 166 86 198 30 71 71 137 84
137 6 0 28 -38 50 -85z"/>
<path d="M23511 5388 c-21 -50 -58 -214 -101 -453 -17 -93 -46 -251 -65 -350
-46 -242 -63 -346 -71 -431 -6 -68 -6 -72 16 -79 28 -9 85 2 99 19 14 16 35
118 60 287 11 74 27 163 35 199 8 36 22 117 31 180 20 142 48 263 63 268 6 2
18 -22 28 -55 9 -32 50 -145 90 -251 41 -106 105 -286 143 -400 77 -234 84
-250 114 -261 54 -20 64 -2 155 274 16 50 41 122 55 160 69 188 100 277 122
355 38 136 66 202 81 188 15 -15 121 -594 144 -783 12 -101 25 -148 44 -165 8
-6 37 -13 65 -17 49 -6 51 -5 61 23 8 20 8 45 1 84 -12 65 -56 271 -76 355
-18 78 -70 344 -90 465 -9 52 -22 127 -30 165 -8 39 -22 104 -30 146 -33 160
-83 159 -146 -5 -17 -45 -55 -151 -84 -236 -191 -556 -235 -671 -254 -668 -21
4 -61 88 -101 213 -48 146 -102 301 -160 460 -28 77 -67 183 -86 235 -47 130
-81 153 -113 78z"/>
<path d="M22854 5396 c-18 -14 -19 -32 -19 -654 0 -352 3 -644 8 -648 13 -13
121 -24 132 -13 14 14 19 1227 5 1278 -7 27 -17 41 -33 45 -37 10 -72 7 -93
-8z"/>
<path d="M24978 5389 c-18 -32 -20 -1281 -2 -1299 19 -19 87 -23 109 -7 20 15
20 27 20 651 0 711 5 663 -73 673 -35 5 -42 2 -54 -18z"/>
<path d="M20789 5383 c-12 -13 -13 -124 -11 -647 3 -578 5 -632 20 -644 24
-19 656 -13 690 6 30 17 30 74 1 103 -20 20 -30 21 -232 19 -117 -1 -238 -2
-269 -1 l-57 1 -1 564 c0 345 -4 574 -10 590 -9 24 -15 26 -64 26 -38 0 -58
-5 -67 -17z"/>
<path d="M21719 5384 c-11 -14 -14 -130 -14 -651 0 -711 -7 -653 78 -653 69 0
71 6 73 317 1 267 6 299 39 287 8 -3 23 -20 33 -37 10 -18 109 -124 218 -237
110 -113 222 -229 249 -258 62 -67 76 -75 138 -73 71 1 87 8 87 37 0 19 -48
72 -203 224 -112 109 -215 208 -230 220 -36 28 -177 198 -177 213 0 7 64 71
141 142 78 72 210 195 293 274 132 125 151 147 151 175 0 30 -2 31 -44 34 -85
6 -108 -11 -390 -288 -146 -143 -270 -260 -278 -260 -7 0 -15 10 -17 23 -4 17
-14 327 -16 489 0 33 -107 51 -131 22z"/>
<path d="M18620 4891 c-5 -11 -13 -71 -16 -135 l-7 -116 -88 0 c-102 0 -180
-24 -221 -68 -44 -45 -88 -150 -88 -208 0 -65 34 -164 74 -217 57 -75 129 -93
249 -62 32 8 82 15 112 15 46 0 56 4 67 23 10 16 14 111 16 371 2 191 1 364
-3 382 -5 32 -8 34 -45 34 -28 0 -42 -5 -50 -19z m-48 -343 c29 -23 40 -94 33
-211 -7 -99 -10 -112 -34 -139 -37 -41 -110 -55 -159 -31 -53 27 -94 92 -100
157 -6 74 13 148 46 179 50 47 177 74 214 45z"/>
<path d="M18880 4880 c-18 -18 -21 -29 -16 -59 7 -43 30 -63 65 -55 50 12 71
32 71 68 0 40 -15 55 -63 63 -27 4 -39 1 -57 -17z"/>
<path d="M18903 4624 c-16 -11 -18 -38 -21 -263 l-3 -250 25 -17 c28 -18 76
-12 76 9 4 170 2 487 -4 503 -8 26 -49 36 -73 18z"/>
<path d="M20900 3650 c-6 -12 -31 -121 -56 -243 -25 -122 -50 -240 -54 -262
-21 -96 -5 -149 39 -125 29 15 68 170 86 343 6 56 19 69 36 36 33 -62 64 -137
94 -227 41 -122 57 -152 86 -152 26 0 52 58 110 249 33 109 49 147 67 159 12
8 25 12 28 9 8 -8 53 -277 54 -318 0 -55 54 -113 74 -80 4 5 -5 80 -19 168
-68 435 -78 473 -118 458 -9 -4 -23 -17 -31 -29 -24 -37 -84 -201 -106 -288
-20 -80 -54 -143 -71 -132 -26 16 -97 205 -128 340 -22 95 -66 140 -91 94z"/>
<path d="M22305 3662 c-22 -1 -50 -5 -62 -7 l-23 -5 0 -294 c0 -271 1 -296 18
-317 23 -27 48 -21 62 16 6 15 10 60 10 101 0 67 3 78 25 100 22 22 31 25 68
19 23 -4 50 -9 60 -11 10 -3 39 -49 68 -107 59 -118 73 -137 106 -137 39 0 35
44 -13 143 -19 39 -34 78 -34 86 0 8 16 38 36 66 90 131 76 279 -31 326 -41
18 -182 29 -290 21z m217 -82 c71 -20 98 -94 64 -175 -20 -46 -46 -57 -151
-63 -114 -6 -119 -1 -123 113 -3 66 0 88 13 109 16 24 23 26 89 26 39 0 88 -5
108 -10z"/>
<path d="M21753 3553 c-32 -60 -67 -137 -79 -173 -12 -36 -42 -108 -67 -160
-58 -122 -75 -176 -58 -193 16 -16 39 0 68 44 12 19 34 50 48 70 l25 37 127 7
c147 9 164 3 201 -67 26 -49 70 -98 88 -98 38 0 22 66 -49 205 -31 61 -65 133
-75 160 -87 222 -116 275 -153 275 -12 0 -36 -33 -76 -107z m127 -110 c35 -54
66 -144 57 -165 -6 -16 -75 -28 -164 -28 -63 0 -64 1 -26 108 50 144 83 165
133 85z"/>
<path d="M22829 3653 c-1 -5 -3 -143 -4 -308 -3 -199 0 -304 7 -312 18 -22 48
-15 58 13 6 14 10 72 10 128 0 84 3 106 16 117 14 12 19 10 33 -10 9 -13 32
-40 53 -60 20 -20 52 -55 72 -79 59 -71 126 -122 162 -122 35 0 46 15 32 42
-4 10 -65 74 -133 142 -78 78 -125 133 -125 145 0 24 119 163 182 212 83 65
99 99 48 99 -47 0 -85 -25 -168 -108 -90 -91 -140 -132 -158 -132 -11 0 -14
24 -14 108 0 71 -4 112 -12 120 -13 13 -57 17 -59 5z"/>
<path d="M23369 3648 c-1 -7 0 -111 1 -232 2 -241 11 -294 57 -338 51 -49 96
-61 197 -53 124 10 187 38 217 97 22 40 23 57 27 276 3 174 1 236 -8 247 -14
17 -56 20 -65 5 -4 -6 -8 -106 -10 -223 -4 -256 -11 -282 -75 -314 -90 -46
-191 -18 -232 65 -21 44 -23 62 -26 252 -2 119 -8 210 -14 218 -6 6 -23 12
-39 12 -16 0 -29 -6 -30 -12z"/>
</g>
</svg>
