<?xml version="1.0" encoding="utf-8"?>
<!-- Generator: Adobe Illustrator 29.5.1, SVG Export Plug-In . SVG Version: 9.03 Build 0)  -->
<svg version="1.0" id="Livello_1" xmlns="http://www.w3.org/2000/svg" xmlns:xlink="http://www.w3.org/1999/xlink" x="0px" y="0px"
	 viewBox="0 0 3180 1698" style="enable-background:new 0 0 3180 1698;" xml:space="preserve">
<style type="text/css">
	.st0{fill:#1D1D1B;}
</style>
<g transform="translate(0.000000,1698.000000) scale(0.100000,-0.100000)">
	<path class="st0" d="M16780,16025c-265-25-514-84-695-165c-33-15-80-35-105-46c-228-97-426-223-669-427c-134-112-229-204-296-287
		c-28-36-80-94-114-130c-60-63-124-151-226-310c-27-43-57-86-66-97c-33-36-319-582-319-607c0-8-78-208-130-336c-22-52-51-135-66-185
		c-15-49-39-133-55-185c-76-252-158-653-184-910c-23-220-30-871-15-1220c15-328,16-368,4-380c-6-6-36,8-79,37c-69,46-146,89-295,163
		c-218,110-653,204-915,198c-170-3-147-25,60-58c254-40,259-41,500-118c127-41,167-59,329-155c186-109,415-295,439-356
		c20-48,41-155,62-306c25-180,84-542,100-610c7-33,20-107,29-165c19-121,46-252,76-360c11-41,36-142,56-225c74-307,164-652,188-720
		c13-38,40-124,59-190c63-216,147-478,186-585c22-58,66-186,100-285c33-99,87-254,121-345s89-241,122-335c56-159,75-211,178-485
		c277-740,312-828,527-1320c119-272,304-652,430-885c33-60,83-153,110-205c28-52,66-120,85-151c69-117,168-291,168-295
		c0-2,30-50,68-107c37-57,85-134,107-171s81-128,130-202c50-75,107-164,129-198c21-33,60-88,86-121s65-87,88-120
		c99-142,359-486,462-611c41-51,94-116,117-145c24-30,71-89,105-131c35-42,78-97,96-122s40-46,48-46c19,0,17,36-30,490
		c-8,80-22,217-31,305s-22,210-30,270c-8,61-21,166-30,235s-22,159-30,200s-24,136-36,210c-11,74-24,153-29,175s-23,112-40,200
		c-80,414-162,772-240,1050c-16,55-36,129-46,165c-29,109-40,151-74,260c-46,151-209,659-225,700c-8,19-39,105-70,190
		s-65,175-75,200s-31,79-45,120c-15,41-56,143-91,225c-34,83-93,222-129,310c-64,152-123,287-185,420c-15,33-65,141-110,240
		c-78,170-353,728-370,750c-4,6-44,81-88,167c-45,87-92,175-105,195c-13,21-41,70-62,108c-21,39-72,131-113,205
		c-82,147-151,271-202,365c-18,33-47,83-65,110c-18,28-69,111-113,186c-198,334-513,783-703,1003c-126,145-309,337-371,388
		c-69,58-76,77-88,253c-5,72-14,195-20,275c-14,194-14,1049,0,1220c19,234,79,575,136,785c73,264,126,438,169,550
		c237,616,417,944,705,1290c311,373,579,586,973,774c272,131,450,178,772,207c325,29,654-3,916-89c393-129,728-342,1024-648
		c264-274,428-517,590-874c123-271,160-391,206-655c74-430,95-765,70-1098c-31-407-153-975-273-1272c-16-41-48-126-70-189
		c-43-126-257-555-346-696c-154-244-164-258-357-495c-118-146-429-422-635-564c-323-224-527-323-860-419c-143-41-452-55-660-29
		c-186,24-407,98-499,168c-127,97-221,284-221,439c0,116,51,350,99,457c32,71,138,262,189,342c57,89,33,118-32,40
		c-228-272-312-443-366-741c-32-170-16-303,54-455c103-227,306-372,621-443c338-76,707-52,1085,71c152,49,460,205,625,316
		c261,176,476,356,652,543c166,177,276,317,437,555c85,125,237,402,338,615c115,242,273,703,322,935c91,438,128,757,130,1115
		c1,331-21,557-90,915c-88,453-352,999-661,1371c-103,123-285,306-410,411c-124,103-419,297-528,346c-49,22-112,52-139,66
		s-54,26-61,26s-37,11-67,24c-132,58-362,106-638,131C17088,16042,16965,16042,16780,16025z M14246,10082c16-21,62-77,103-126
		c42-49,123-151,181-226c58-76,122-159,144-186c38-50,240-355,329-500c27-44,77-124,111-179c76-122,152-256,409-720
		c142-256,204-374,361-680c86-168,313-638,321-665c4-14,44-104,90-200c45-96,98-213,118-260c174-416,225-538,231-555
		c5-11,27-74,51-140s66-181,95-255c64-167,253-732,314-940c94-321,239-899,285-1140c27-135,46-229,75-365c13-60,27-132,31-160
		c3-27,26-171,50-320c48-290,70-462,79-617c5-83,4-98-8-98c-15,0-129,138-241,293c-33,45-90,124-128,176c-93,127-328,480-425,638
		c-44,70-102,164-129,209c-45,72-177,300-238,409c-133,239-405,784-507,1015c-28,63-70,158-93,210c-24,52-52,118-63,145
		c-11,28-42,104-70,170c-27,66-57,141-65,166c-9,25-40,104-71,175c-30,71-69,170-86,219c-54,157-91,256-143,385
		c-27,69-72,188-99,265c-95,269-107,301-148,410c-44,114-124,339-165,460c-13,39-45,129-70,200c-49,138-112,334-215,665
		c-18,58-44,139-58,180s-29,91-32,110c-4,19-18,71-30,115s-26,96-30,115s-20,82-34,140c-15,58-34,134-42,170c-9,36-22,85-29,110
		s-21,79-30,120s-23,98-30,125c-14,49-58,279-90,465c-9,52-23,127-30,165c-40,196-55,332-39,348
		C14197,10134,14219,10119,14246,10082z"/>
	<path d="M16067,10332c-10-10-14-22-10-25c3-4,13,2,21,14C16096,10347,16088,10356,16067,10332z"/>
</g>
</svg>
